<svg width="800" height="600" viewBox="0 0 800 600" fill="none" xmlns="http://www.w3.org/2000/svg">
  <rect width="800" height="600" rx="28" fill="#0f172a"/>
  <defs>
    <radialGradient id="paint0_radial" cx="0" cy="0" r="1" gradientUnits="userSpaceOnUse" gradientTransform="translate(200 160) rotate(45) scale(360)">
      <stop stop-color="#818CF8" stop-opacity="0.9"/>
      <stop offset="1" stop-color="#0f172a" stop-opacity="0"/>
    </radialGradient>
    <radialGradient id="paint1_radial" cx="0" cy="0" r="1" gradientUnits="userSpaceOnUse" gradientTransform="translate(560 420) rotate(-30) scale(320)">
      <stop stop-color="#A855F7" stop-opacity="0.8"/>
      <stop offset="1" stop-color="#0f172a" stop-opacity="0"/>
    </radialGradient>
  </defs>
  <rect width="800" height="600" rx="28" fill="url(#paint0_radial)"/>
  <rect width="800" height="600" rx="28" fill="url(#paint1_radial)"/>
  <g opacity="0.4" stroke="#38BDF8" stroke-width="0.6">
    <path d="M80 120L720 120"/>
    <path d="M80 200L720 200"/>
    <path d="M80 280L720 280"/>
    <path d="M80 360L720 360"/>
    <path d="M80 440L720 440"/>
  </g>
  <g opacity="0.25" stroke="#6366F1">
    <path d="M160 100C320 140 480 60 640 120" stroke-width="1.2"/>
    <path d="M160 220C340 180 480 260 640 220" stroke-width="1.2"/>
    <path d="M160 340C360 380 460 300 640 340" stroke-width="1.2"/>
  </g>
</svg>
